<?xml version="1.0" encoding="UTF-8" standalone="no"?>
<!DOCTYPE svg PUBLIC "-//W3C//DTD SVG 1.1//EN" "http://www.w3.org/Graphics/SVG/1.1/DTD/svg11.dtd">
<svg version="1.1" xmlns="http://www.w3.org/2000/svg" width="160" height="160" viewBox="-0.9 -0.9 1.8 1.8">
	<rect fill="#FFFFFF" x="-0.9" y="-0.9" width="1.8" height="1.8"/>
	<g style="stroke-width:0.1;stroke-linejoin:round;opacity:1">
		<polygon fill="#000000" stroke="#000000" points="-0.522222222222,-0.522222222222 0.522222222222,-0.522222222222 0.522222222222,0.522222222222 -0.522222222222,0.522222222222"/>
	</g>
	<g style="opacity:1;stroke-opacity:0.5;stroke-width:0;stroke-linejoin:round">
		<polygon fill="#404040" stroke="#000000" points="-0.527777777778,-0.527777777778 -0.212962962963,-0.527777777778 -0.212962962963,-0.212962962963 -0.527777777778,-0.212962962963"/>
		<polygon fill="#FFFFFF" stroke="#000000" points="-0.157407407407,-0.527777777778 0.157407407407,-0.527777777778 0.157407407407,-0.212962962963 -0.157407407407,-0.212962962963"/>
		<polygon fill="#404040" stroke="#000000" points="0.212962962963,-0.527777777778 0.527777777778,-0.527777777778 0.527777777778,-0.212962962963 0.212962962963,-0.212962962963"/>
		<polygon fill="#EE0000" stroke="#000000" points="-0.527777777778,-0.157407407407 -0.212962962963,-0.157407407407 -0.212962962963,0.157407407407 -0.527777777778,0.157407407407"/>
		<polygon fill="#FFFFFF" stroke="#000000" points="-0.157407407407,-0.157407407407 0.157407407407,-0.157407407407 0.157407407407,0.157407407407 -0.157407407407,0.157407407407"/>
		<polygon fill="#FFA100" stroke="#000000" points="0.212962962963,-0.157407407407 0.527777777778,-0.157407407407 0.527777777778,0.157407407407 0.212962962963,0.157407407407"/>
		<polygon fill="#404040" stroke="#000000" points="-0.527777777778,0.212962962963 -0.212962962963,0.212962962963 -0.212962962963,0.527777777778 -0.527777777778,0.527777777778"/>
		<polygon fill="#FFFFFF" stroke="#000000" points="-0.157407407407,0.212962962963 0.157407407407,0.212962962963 0.157407407407,0.527777777778 -0.157407407407,0.527777777778"/>
		<polygon fill="#404040" stroke="#000000" points="0.212962962963,0.212962962963 0.527777777778,0.212962962963 0.527777777778,0.527777777778 0.212962962963,0.527777777778"/>
	</g>
	<g style="opacity:1;stroke-opacity:1;stroke-width:0.02;stroke-linejoin:round">
		<polygon fill="#404040" stroke="#000000" points="-0.544061302682,0.554406130268 -0.195913154534,0.554406130268 -0.183908045977,0.718390804598 -0.508045977011,0.718390804598"/>
		<polygon fill="#00D800" stroke="#000000" points="-0.174457215837,0.554406130268 0.173690932312,0.554406130268 0.161685823755,0.718390804598 -0.16245210728,0.718390804598"/>
		<polygon fill="#404040" stroke="#000000" points="0.195146871009,0.554406130268 0.543295019157,0.554406130268 0.507279693487,0.718390804598 0.183141762452,0.718390804598"/>
		<polygon fill="#404040" stroke="#000000" points="-0.554406130268,-0.544061302682 -0.554406130268,-0.195913154534 -0.718390804598,-0.183908045977 -0.718390804598,-0.508045977011"/>
		<polygon fill="#FFFFFF" stroke="#000000" points="-0.554406130268,-0.174457215837 -0.554406130268,0.173690932312 -0.718390804598,0.161685823755 -0.718390804598,-0.16245210728"/>
		<polygon fill="#404040" stroke="#000000" points="-0.554406130268,0.195146871009 -0.554406130268,0.543295019157 -0.718390804598,0.507279693487 -0.718390804598,0.183141762452"/>
		<polygon fill="#404040" stroke="#000000" points="0.544061302682,-0.554406130268 0.195913154534,-0.554406130268 0.183908045977,-0.718390804598 0.508045977011,-0.718390804598"/>
		<polygon fill="#0000F2" stroke="#000000" points="0.174457215837,-0.554406130268 -0.173690932312,-0.554406130268 -0.161685823755,-0.718390804598 0.16245210728,-0.718390804598"/>
		<polygon fill="#404040" stroke="#000000" points="-0.195146871009,-0.554406130268 -0.543295019157,-0.554406130268 -0.507279693487,-0.718390804598 -0.183141762452,-0.718390804598"/>
		<polygon fill="#404040" stroke="#000000" points="0.554406130268,0.544061302682 0.554406130268,0.195913154534 0.718390804598,0.183908045977 0.718390804598,0.508045977011"/>
		<polygon fill="#FFFFFF" stroke="#000000" points="0.554406130268,0.174457215837 0.554406130268,-0.173690932312 0.718390804598,-0.161685823755 0.718390804598,0.16245210728"/>
		<polygon fill="#404040" stroke="#000000" points="0.554406130268,-0.195146871009 0.554406130268,-0.543295019157 0.718390804598,-0.507279693487 0.718390804598,-0.183141762452"/>
	</g>
	<g style="opacity:1;stroke-opacity:1;stroke-width:0.04;stroke-linecap:round">
		<path d="M -0.37037037037,-4.16333634234E-17 L 0.37037037037,-4.16333634234E-17" style="fill:none;stroke:#808080;stroke-opacity:1"/>
		<path transform=" translate(0.37037037037,-4.16333634234E-17) scale(0.011) rotate(0)" d="M 5.77,0.0 L -2.88,5.0 L -2.88,-5.0 L 5.77,0.0 z" style="fill:#808080;stroke-width:0;stroke-linejoin:round"/>
		<path d="M 0.37037037037,-4.16333634234E-17 L -0.37037037037,-4.16333634234E-17" style="fill:none;stroke:#808080;stroke-opacity:1"/>
		<path transform=" translate(-0.37037037037,-4.16333634234E-17) scale(0.011) rotate(180)" d="M 5.77,0.0 L -2.88,5.0 L -2.88,-5.0 L 5.77,0.0 z" style="fill:#808080;stroke-width:0;stroke-linejoin:round"/>
	</g>
</svg>